<?xml version="1.0" standalone="no"?>
<!DOCTYPE svg PUBLIC "-//W3C//DTD SVG 20010904//EN"
 "http://www.w3.org/TR/2001/REC-SVG-20010904/DTD/svg10.dtd">
<svg version="1.0" xmlns="http://www.w3.org/2000/svg"
 width="512.000000pt" height="512.000000pt" viewBox="0 0 512.000000 512.000000"
 preserveAspectRatio="xMidYMid meet">
<metadata>
Created by potrace 1.16, written by Peter Selinger 2001-2019
</metadata>
<g transform="translate(0.000000,512.000000) scale(0.100000,-0.100000)"
fill="#000000" stroke="none">
<path d="M2507 4922 c-9 -10 -21 -50 -27 -89 -17 -124 -69 -226 -147 -292 -77
-65 -83 -73 -83 -103 0 -22 9 -38 32 -57 123 -102 171 -182 195 -320 16 -97
35 -124 83 -124 48 0 67 27 83 124 24 138 72 218 195 320 39 33 43 77 10 107
-13 11 -42 37 -65 57 -79 69 -126 162 -144 289 -11 83 -28 106 -79 106 -23 0
-43 -7 -53 -18z m105 -418 l48 -65 -46 -62 c-25 -34 -50 -62 -54 -62 -4 0 -29
28 -54 62 l-46 62 48 65 c26 36 49 65 52 65 3 0 26 -29 52 -65z"/>
<path d="M2126 3698 c-16 -15 -117 -234 -289 -623 l-266 -600 -200 -5 c-184
-5 -202 -7 -220 -25 -28 -29 -971 -2162 -971 -2197 0 -15 9 -37 20 -48 20 -20
33 -20 2360 -20 2327 0 2340 0 2360 20 11 11 20 33 20 49 0 36 -683 1579 -707
1597 -14 10 -66 13 -215 14 l-196 0 -296 668 -297 667 -321 263 -321 262 -218
0 c-212 0 -219 -1 -243 -22z m691 -363 l288 -236 406 -914 c223 -503 414 -924
424 -935 40 -44 125 -12 125 46 0 14 -34 103 -76 198 -42 94 -80 181 -85 194
l-9 22 124 0 124 0 283 -637 c155 -351 293 -662 306 -690 l23 -53 -603 0 -602
0 -100 226 c-57 130 -107 232 -119 240 -51 35 -116 2 -115 -58 0 -19 37 -115
83 -218 l83 -185 -409 -3 c-224 -1 -592 -1 -816 0 l-409 3 83 185 c46 103 83
199 83 218 1 59 -64 93 -114 58 -11 -8 -64 -114 -120 -240 l-100 -226 -602 0
-603 0 24 52 c12 29 211 477 441 996 l418 942 125 0 c95 0 123 -3 119 -12 -3
-7 -42 -95 -86 -194 -45 -100 -81 -195 -81 -212 0 -59 86 -93 126 -49 7 6 182
396 390 865 l378 852 153 0 153 0 287 -235z"/>
<path d="M2883 2750 c-25 -10 -43 -39 -43 -68 0 -11 52 -137 116 -280 116
-262 129 -282 178 -282 30 0 66 41 66 75 0 32 -208 518 -233 542 -17 17 -59
24 -84 13z"/>
<path d="M2507 1962 c-9 -10 -21 -49 -26 -88 -19 -129 -60 -214 -138 -283 -26
-24 -58 -52 -70 -63 -14 -12 -23 -32 -23 -50 0 -30 17 -50 82 -100 73 -55 127
-164 148 -295 13 -78 34 -106 80 -106 48 0 67 27 83 124 24 138 72 218 195
320 39 33 43 77 10 107 -13 11 -42 37 -65 57 -79 69 -126 162 -144 289 -11 83
-28 106 -79 106 -23 0 -43 -7 -53 -18z m105 -418 l48 -65 -46 -62 c-25 -34
-50 -62 -54 -62 -4 0 -29 28 -54 62 l-46 62 48 65 c26 36 49 65 52 65 3 0 26
-29 52 -65z"/>
<path d="M1148 3693 c-9 -10 -21 -51 -27 -90 -21 -137 -79 -243 -168 -308 -79
-57 -79 -113 0 -170 89 -65 147 -171 168 -308 13 -86 29 -107 79 -107 50 0 69
24 80 103 18 123 76 240 146 293 69 53 84 72 84 104 0 32 -9 43 -92 112 -28
23 -58 62 -80 105 -38 73 -45 96 -58 187 -5 32 -16 67 -26 77 -22 25 -85 26
-106 2z m106 -420 l46 -63 -46 -62 c-25 -35 -49 -64 -52 -65 -4 -1 -28 27 -54
63 l-47 64 47 64 c26 36 50 64 54 63 3 -1 27 -30 52 -64z"/>
<path d="M4141 3093 c-16 -13 -24 -36 -32 -88 -20 -144 -59 -218 -163 -310
-57 -51 -66 -63 -66 -93 0 -24 7 -40 26 -55 84 -70 114 -103 142 -154 37 -71
62 -153 62 -205 0 -48 35 -88 78 -88 49 0 63 19 79 111 23 139 80 243 165 305
26 20 53 45 59 56 19 35 1 75 -51 112 -93 67 -149 169 -171 309 -9 55 -17 77
-36 95 -29 26 -63 28 -92 5z m103 -431 l48 -63 -37 -40 c-20 -22 -41 -51 -47
-65 -14 -30 -24 -30 -39 -1 -6 12 -29 43 -50 68 l-38 46 25 24 c14 13 37 42
52 66 15 23 29 39 33 35 3 -4 27 -35 53 -70z"/>
</g>
</svg>
